<?xml version="1.0" encoding="utf-8"?>
<!-- Generator: Adobe Illustrator 21.0.2, SVG Export Plug-In . SVG Version: 6.00 Build 0)  -->
<svg version="1.1" id="Layer_1" xmlns="http://www.w3.org/2000/svg" xmlns:xlink="http://www.w3.org/1999/xlink" x="0px" y="0px"
	 viewBox="0 0 438 363" style="enable-background:new 0 0 438 363;" xml:space="preserve">
<style type="text/css">
	.st0{display:none;fill:#0F1A22;}
	.st1{fill:#41919F;}
</style>
<rect x="-20.6" y="-13.1" class="st0" width="467" height="382"/>
<polygon class="st0" points="118,351.8 111.5,348.8 108.5,342.9 125,305.5 120.8,293.4 100.5,283 52.4,260.9 21.9,235.9 18.2,226.4
	14.7,191.7 15.9,178.3 25.5,144.1 29.4,130.2 33.7,114.6 42.9,97.7 52.4,85.9 81.1,61.5 139.3,25.4 151.7,21.7 211.3,19.2
	252.2,18.8 263,18.8 290.4,22.8 303.5,26.7 329.5,39.6 384.3,72.2 398.5,91.5 417,126 420,138.8 417.7,208.2 413.3,220.1
	389.5,250.4 379.2,255.8 316.9,259 299.4,259 295,262.5 193.4,288.8 187.6,287.8 176.7,296.9 "/>
<polyline class="st0" points="111.5,348.8 118,351.8 127.3,349.9 150.7,320.9 185.2,289.8 187.6,287.8 "/>
<g>
	<path class="st1" d="M295,262.2l-102.6,26.6l39.8-24.6c1.3,1.3,3.2,2.2,5.2,2.2c3.4,0,6.3-2.3,7.1-5.5L295,262.2z"/>
	<path class="st1" d="M111.5,348.8c0.1-0.3,0.1-0.6,0.1-0.9l17.8-2.7c0.2,0.5,0.5,1,0.8,1.4l-2.9,3.3c-1-0.6-2.2-0.9-3.5-0.9
		c-2.3,0-4.4,1.1-5.8,2.8L111.5,348.8z"/>
	<path class="st1" d="M100.5,283c0.1-0.5,0.2-1.1,0.2-1.7l32.7-7.3c0.5,0.9,1.1,1.8,1.9,2.4l-7.2,14.7c-0.5-0.1-1.1-0.2-1.6-0.2
		c-2.2,0-4.2,1-5.6,2.6L100.5,283z"/>
	<path class="st1" d="M67.5,267.3c0.1-0.5,0.2-1,0.2-1.5c0-0.3,0-0.5,0-0.8l52.6-18.7c0.1,0.1,0.2,0.2,0.2,0.4l-23.8,28
		c-1-0.5-2.1-0.8-3.3-0.8c-2.3,0-4.4,1.1-5.8,2.8L67.5,267.3z"/>
	<path class="st1" d="M69.3,216.3c0.1-0.4,0.1-0.8,0.1-1.2c0-0.2,0-0.5,0-0.7l50.8-17.2c1,1.6,2.6,2.8,4.5,3.3V235
		c-1.7,0.4-3.2,1.4-4.2,2.8L69.3,216.3z"/>
	<path class="st1" d="M24,236.6c0.4-0.9,0.6-1.9,0.6-2.9c0-0.4,0-0.8-0.1-1.2l31.6-13.1c1,1.3,2.4,2.3,4,2.8l-1.3,36.4
		c-1.2,0.2-2.4,0.8-3.3,1.6L24,236.6z"/>
	<path class="st1" d="M79.9,62.9l23.9-15.5l-18,24.9c-0.9-0.4-1.8-0.6-2.8-0.6c-1,0-2,0.2-2.8,0.6l-1.5-2.1c1.1-1.3,1.8-3,1.8-4.8
		C80.3,64.5,80.1,63.7,79.9,62.9z"/>
	<path class="st1" d="M389.5,250.4c-0.9-0.4-2-0.7-3.1-0.7c-0.7,0-1.4,0.1-2.1,0.3L358,204.5c0.6-0.6,1.1-1.2,1.5-2l52.2,12.9
		c0,0,0,0,0,0.1c0,1.7,0.6,3.3,1.6,4.6L389.5,250.4z"/>
	<path class="st1" d="M310,254.1c-0.5-0.2-1.1-0.4-1.7-0.5l-3.9-56.9c2-0.6,3.7-2.1,4.5-4l36.7,6.8c0.1,1.7,0.7,3.2,1.7,4.4
		L310,254.1z"/>
	<path class="st1" d="M263,211c0.8-1.2,1.2-2.6,1.2-4.1c0-0.3,0-0.6-0.1-1l31.9-12.1c1.1,1.6,2.9,2.8,4.9,3.1l3.9,56.9
		c-0.5,0.2-1,0.4-1.4,0.6L263,211z"/>
	<path class="st1" d="M151.9,321.5c-1.1-0.7-2.4-1.1-3.8-1.1c-1,0-2,0.2-2.9,0.6L132,303c0.9-1,1.5-2.3,1.7-3.7l41.3-3.7
		c0.2,0.6,0.4,1.1,0.8,1.6L151.9,321.5z"/>
	<path class="st1" d="M119.1,194l-46.1,15.6l40.4-28c1.3,1.2,3,1.9,4.9,1.9c0.5,0,1-0.1,1.5-0.2l2,4.3c-1.7,1.4-2.8,3.4-2.8,5.7
		C119,193.5,119,193.7,119.1,194z"/>
	<path class="st1" d="M25.5,144.1c0.1,0,0.2,0,0.3,0c3.7,0,6.8-2.8,7.3-6.4l41.9-4.4c0.1,0.2,0.2,0.4,0.2,0.6L16.9,179
		c-0.3-0.3-0.7-0.5-1-0.7L25.5,144.1z"/>
	<path class="st1" d="M33.7,114.6c0.1,0,0.2,0,0.3,0c2.3,0,4.3-1,5.7-2.7l35.2,17.2c-0.1,0.2-0.1,0.5-0.1,0.7l-41.9,4.4
		c-0.6-1.7-1.8-3.1-3.4-4L33.7,114.6z"/>
	<path class="st1" d="M42.9,97.7c0.9,0.4,1.8,0.6,2.8,0.6c1.3,0,2.5-0.3,3.6-0.9l25.4,28l-33.6-16.5c0.1-0.5,0.2-1.1,0.2-1.6
		c0-1.8-0.7-3.5-1.8-4.8L42.9,97.7z"/>
	<path class="st1" d="M217.1,24.4c0.4,0.1,0.8,0.1,1.2,0.1c0.2,0,0.3,0,0.5,0L238.7,90c-1.2,0.7-2.1,1.7-2.8,2.9l-37.8-9.9
		c0-0.1,0-0.1,0-0.2c0-2.4-1.2-4.6-3-5.9L217.1,24.4z"/>
	<path class="st1" d="M259.5,24.5c1,0,2-0.3,2.9-0.7L283.7,51c-1,1.3-1.6,2.9-1.6,4.6c0,1.2,0.3,2.4,0.8,3.4l-36.3,31.4
		c-0.4-0.3-0.7-0.5-1.1-0.7L259.5,24.5z"/>
	<path class="st1" d="M359.6,85l16.9-13.5L357.3,110c-0.2,0-0.4-0.1-0.7-0.1l-1.4-14.7c2.9-1,5-3.7,5-7C360.3,87,360,86,359.6,85z"
		/>
	<path class="st1" d="M398.5,91.5c-1.1,1.3-1.8,3-1.8,4.8c0,1,0.2,2,0.6,2.9l-21.5,15.9c-0.5-0.4-1.1-0.8-1.7-1.1l7.8-41.3
		c0.9,0,1.7-0.2,2.5-0.6L398.5,91.5z"/>
	<path class="st1" d="M417,126c-0.8,0.7-1.5,1.5-1.9,2.5l-36.6-7.9c0-1-0.2-1.9-0.6-2.7l21.5-15.9c1.3,1.1,2.9,1.7,4.7,1.7
		c0.6,0,1.1-0.1,1.7-0.2L417,126z"/>
	<path class="st1" d="M414.4,156.7l-37.8,2.7l39.7-22.7c1,1,2.2,1.8,3.7,2.1l0,11.8C417.1,151.4,414.9,153.7,414.4,156.7z"/>
	<path class="st1" d="M401.8,170.1c-1.3-1.1-3-1.8-4.8-1.8c-2.2,0-4.3,1-5.6,2.6l-15-7.6c0-0.2,0.1-0.4,0.1-0.6l38.2-2.7
		c0.1,0.2,0.1,0.4,0.2,0.6L401.8,170.1z"/>
	<path class="st1" d="M357.3,193.2l10.6-24.4c0.4,0.1,0.9,0.1,1.3,0.1c2.2,0,4.3-1,5.6-2.6l15,7.6c-0.1,0.6-0.2,1.1-0.2,1.7
		c0,0.6,0.1,1.3,0.2,1.9l-31.4,16.7C358.1,193.9,357.8,193.5,357.3,193.2z"/>
	<path class="st1" d="M252.1,191.9c-0.6-1.8-1.9-3.3-3.6-4.2l11.8-45c0.1,0,0.1,0,0.2,0c1.1,0,2.1-0.2,3-0.6l33,43
		c-0.8,1-1.4,2.2-1.6,3.5L252.1,191.9z"/>
	<path class="st1" d="M210.5,236.5c-0.7-2.2-2.3-3.9-4.4-4.7l4.3-30.2c0.5,0,0.9-0.1,1.3-0.2l16.6,30.1c-1.2,1.1-2,2.5-2.3,4.2
		L210.5,236.5z"/>
	<path class="st1" d="M131.1,292.6l7.2-14.7c0.5,0.1,1.1,0.2,1.6,0.2c3.8,0,6.9-2.9,7.3-6.5l75.1-9l-89.8,31.7
		C132.2,293.6,131.7,293.1,131.1,292.6z"/>
	<path class="st1" d="M87.8,135.3c0.3-0.4,0.6-0.9,0.9-1.4l37.6,7.9c0.1,2.3,1.2,4.3,2.9,5.7l-9.6,21.4c-0.4-0.1-0.9-0.1-1.4-0.1
		c-1.1,0-2.2,0.3-3.1,0.7L87.8,135.3z"/>
	<path class="st1" d="M113.9,79.3c0.8,2.7,3.1,4.8,6,5.2l0.6,7.5c-1.3,0.4-2.5,1.2-3.4,2.3L90.1,80.8c0-0.1,0-0.2,0.1-0.3
		L113.9,79.3z"/>
	<path class="st1" d="M235,96.1c0,0.1,0,0.1,0,0.2c0,0.4,0,0.8,0.1,1.2l-25.7,10.8c-1.3-1.8-3.5-3-6-3c-0.4,0-0.8,0-1.2,0.1
		l-7.1-16.7c0.9-0.7,1.6-1.5,2.1-2.5L235,96.1z"/>
	<path class="st1" d="M242.4,103.7c0.5,0,1-0.1,1.5-0.1l12.1,26c-0.6,0.4-1.1,1-1.5,1.6l-43.8-17.4c0.1-0.3,0.1-0.7,0.1-1.1
		c0-0.4,0-0.8-0.1-1.2l25.7-10.8C237.8,102.5,239.9,103.7,242.4,103.7z"/>
	<path class="st1" d="M321.2,102.6c-0.9,1.2-1.5,2.6-1.6,4.2l-24.3,4.6c-0.9-2-2.7-3.6-4.9-4.1l0.7-44.6c0.4-0.1,0.8-0.2,1.2-0.4
		L321.2,102.6z"/>
	<path class="st1" d="M348.8,119.8c0.4,1,1,2,1.8,2.7l-6.4,11.1c-0.7-0.2-1.4-0.3-2.1-0.3c-1.5,0-2.9,0.4-4,1.2l-9.6-9.1
		c0.5-0.9,0.9-1.9,1-3L348.8,119.8z"/>
	<path class="st1" d="M377.7,124l36.6,7.9c0,0.7,0.1,1.3,0.3,1.9l-40,22.8c-0.9-1-2.1-1.7-3.4-2.1l1.2-26.5
		C374.8,127.6,376.7,126,377.7,124z"/>
	<path class="st1" d="M328.7,147.3c1.3-1.1,2.2-2.6,2.5-4.3l3.8-0.2c0.9,3,3.5,5.1,6.7,5.3l7.4,39.6L328.7,147.3z"/>
	<path class="st1" d="M223.2,259l-72.5,8.7l24.3-11c1.3,1.7,3.5,2.9,5.8,2.9c3.2,0,5.9-2,6.9-4.8L223.2,259z"/>
	<path class="st1" d="M147,230.7c0.2-0.7,0.3-1.4,0.3-2.1c0-1.5-0.4-2.9-1.2-4l7.3-7.7c1.1,0.6,2.4,1,3.7,1c0.7,0,1.4-0.1,2-0.3
		l16.5,29.2c-0.1,0.1-0.2,0.2-0.3,0.3L147,230.7z"/>
	<path class="st1" d="M122.8,181.8c1.7-1.3,2.7-3.3,2.8-5.6l15-3.3c0.2,0.4,0.4,0.7,0.6,1l-11.3,12.8c-1-0.6-2.2-0.9-3.5-0.9
		c-0.5,0-1,0.1-1.5,0.2L122.8,181.8z"/>
	<path class="st1" d="M89.3,130.6c0-1-0.3-2-0.7-2.9l29.5-22.9c1.3,1,2.9,1.6,4.6,1.6c0,0,0.1,0,0.1,0l7.3,28.7
		c-1.4,0.7-2.6,1.9-3.2,3.4L89.3,130.6z"/>
	<path class="st1" d="M142.4,127.3l-5.8,7.6c-0.9-0.4-1.9-0.6-3-0.6c0,0-0.1,0-0.1,0l-7.3-28.7c0.2-0.1,0.5-0.3,0.7-0.4l14.9,13.8
		c-0.6,1.1-1,2.3-1,3.6C140.8,124.4,141.4,126,142.4,127.3z"/>
	<path class="st1" d="M196.7,115.6c0.4,1,1.1,1.9,1.9,2.6l-22.3,42.6c-0.6-0.1-1.2-0.2-1.8-0.2c-0.7,0-1.5,0.1-2.1,0.3l-19.1-32.9
		c1.3-1.3,2.2-3,2.3-4.9L196.7,115.6z"/>
	<path class="st1" d="M253.2,134.2c-0.1,0.3-0.1,0.7-0.1,1.1c0,1.3,0.3,2.5,0.9,3.6L242,150c-1.2-0.8-2.6-1.3-4.1-1.3
		c-1.1,0-2.2,0.2-3.1,0.7l-25.5-32.3c0.1-0.1,0.2-0.2,0.3-0.3L253.2,134.2z"/>
	<path class="st1" d="M245.4,186.5l-4.5-23.6c2.6-1.2,4.4-3.7,4.4-6.7c0-1.3-0.3-2.5-0.9-3.6l12.1-11.1c0.2,0.1,0.4,0.3,0.7,0.4
		L245.4,186.5z"/>
	<path class="st1" d="M233.6,229.4c-0.1,0-0.2,0-0.3,0c-0.7,0-1.4,0.1-2,0.3l-16.6-30c1.1-1,1.9-2.3,2.2-3.7h21
		c0.5,2,1.8,3.8,3.6,4.8L233.6,229.4z"/>
	<path class="st1" d="M199.7,232.2c0.1-0.6,0.2-1.2,0.2-1.8c0-2.3-1.1-4.4-2.8-5.7l9.3-19.7l-3.7,26.2
		C201.6,231.4,200.6,231.7,199.7,232.2z"/>
	<path class="st1" d="M196.4,240.8L186,247c-0.1-0.1-0.2-0.2-0.4-0.3l5-9.1c0.6,0.2,1.3,0.3,1.9,0.3c1.4,0,2.6-0.4,3.7-1
		c-0.1,0.6-0.2,1.2-0.2,1.8C196,239.4,196.2,240.1,196.4,240.8z"/>
	<path class="st1" d="M124.9,172.9c-0.5-1-1.2-2-2.2-2.7l9.6-21.4c0.4,0.1,0.9,0.1,1.4,0.1c0.5,0,1.1-0.1,1.6-0.2l7.4,15.2
		c-1.6,1.3-2.7,3.3-2.7,5.6L124.9,172.9z"/>
	<path class="st1" d="M216.9,192.5c-0.3-1.1-0.8-2.2-1.5-3.1l19.6-26.5c0.8,0.3,1.7,0.5,2.6,0.6l4.6,24c-2.1,0.9-3.6,2.8-4.2,5
		H216.9z"/>
	<path class="st1" d="M169.1,190.2l-1,0c-0.3-1.6-1.1-3-2.2-4.1l6.4-11.1c0.7,0.2,1.4,0.3,2.1,0.3c1.8,0,3.5-0.6,4.7-1.7l23.8,17.7
		c-0.1,0.3-0.2,0.5-0.3,0.8L169.1,190.2z"/>
	<path class="st1" d="M201.6,119.8c0.6,0.1,1.2,0.2,1.8,0.2c1.1,0,2.2-0.2,3.1-0.7l25.5,32.3c-0.9,1.2-1.5,2.6-1.6,4.2l-49.3,9.2
		c-0.4-1-1.1-1.9-1.9-2.6L201.6,119.8z"/>
	<path class="st1" d="M182.7,245.1c-0.6-0.2-1.3-0.3-1.9-0.3c-0.7,0-1.4,0.1-2,0.3l-16.5-29.2c0.1-0.1,0.3-0.3,0.4-0.4l22.9,12.9
		c-0.2,0.6-0.3,1.3-0.3,2c0,2.2,1,4.1,2.5,5.5L182.7,245.1z"/>
	<path class="st1" d="M185.5,224.5l-21.3-12c0.2-0.6,0.3-1.3,0.3-2c0-3-1.8-5.6-4.4-6.7l0.9-4.9c1,0,2-0.3,2.9-0.7L185.5,224.5z"/>
	<path class="st1" d="M169.4,173.3l-6.4,11.2c-0.7-0.2-1.4-0.3-2.1-0.3c-0.8,0-1.6,0.1-2.4,0.4l-6-9.6c1-1.1,1.8-2.4,2-4l12.9-0.9
		C167.8,171.3,168.4,172.4,169.4,173.3z"/>
	<path class="st1" d="M167.5,165.5c-0.1,0.4-0.2,0.8-0.3,1.2l-12.9,0.9c-0.9-3-3.7-5.2-7-5.2c-0.5,0-1.1,0.1-1.6,0.2l-7.4-15.2
		c0.2-0.1,0.3-0.3,0.5-0.4L167.5,165.5z"/>
	<path class="st1" d="M181.2,170.8c0.3-0.8,0.5-1.6,0.6-2.5l49.3-9.2c0.3,0.6,0.7,1.2,1.1,1.8l-19.6,26.5c-0.9-0.4-1.9-0.6-2.9-0.6
		c-1.8,0-3.5,0.6-4.7,1.7L181.2,170.8z"/>
	<path class="st1" d="M169.4,162.6C169.3,162.6,169.3,162.6,169.4,162.6l-28.8-18.5c0.3-0.8,0.4-1.6,0.4-2.5c0-1.8-0.6-3.4-1.7-4.7
		l5.8-7.6c0.9,0.4,1.9,0.6,3,0.6c0.7,0,1.5-0.1,2.1-0.3L169.4,162.6z"/>
	<path class="st1" d="M143.8,176.2c1,0.6,2.2,0.9,3.5,0.9c0.8,0,1.6-0.1,2.4-0.4l6,9.6c-1,1-1.7,2.4-2,3.9l-20.1,1.1
		c-0.2-0.8-0.6-1.5-1-2.2L143.8,176.2z"/>
	<path class="st1" d="M133.5,195.3c0.1-0.2,0.1-0.5,0.2-0.7l20.1-1.1c0.6,2.1,2.1,3.8,4.1,4.6l-0.9,4.9c-2,0.1-3.8,1-5.1,2.4
		L133.5,195.3z"/>
	<path class="st1" d="M194.1,223.2c-0.5-0.1-1-0.2-1.5-0.2c-1.1,0-2.2,0.3-3.2,0.7L166.7,196c0.5-0.7,1-1.5,1.2-2.4l33.6,1.9l1,0
		c0.3,1.8,1.3,3.4,2.6,4.5L194.1,223.2z"/>
	<path class="st1" d="M150.1,208.5c-0.2,0.6-0.3,1.3-0.3,2c0,1.5,0.4,2.9,1.2,4l-7.3,7.7c-1.1-0.6-2.4-1-3.7-1c-0.3,0-0.7,0-1,0.1
		l-8.4-22c0.5-0.3,0.9-0.7,1.3-1.1L150.1,208.5z"/>
	<path class="st1" d="M303.6,182.4c-0.5-0.1-0.9-0.1-1.4-0.1c-1.1,0-2.1,0.2-3,0.6l-33-43c0.5-0.7,1-1.4,1.3-2.2l49.2,4.9
		c0.3,2,1.3,3.7,2.8,4.8L303.6,182.4z"/>
	<path class="st1" d="M283.9,120.1c1.3,1.1,2.9,1.7,4.7,1.7c1.8,0,3.4-0.6,4.6-1.7l24,18.4c-0.1,0.2-0.2,0.4-0.2,0.6l-49.2-4.9
		c-0.1-0.7-0.3-1.3-0.5-1.9L283.9,120.1z"/>
	<path class="st1" d="M331,139.6c-0.8-2.7-3.1-4.8-6-5.2l-0.5-5.7c0.6-0.2,1.2-0.5,1.7-0.8l9.6,9.1c-0.4,0.7-0.7,1.5-0.9,2.4
		L331,139.6z"/>
	<path class="st1" d="M366.1,126.2c0.8,0.7,1.8,1.3,2.9,1.6l-1.2,26.5c-1.2,0.2-2.3,0.8-3.3,1.5l-15.8-12.1c0.4-0.9,0.6-1.9,0.6-3
		c0-0.9-0.2-1.8-0.5-2.7L366.1,126.2z"/>
	<path class="st1" d="M370.7,113.4c-3.9,0.2-7,3.4-7,7.4c0,0.9,0.2,1.8,0.5,2.7l-16.9,11.6l6.3-10.8c0.7,0.2,1.4,0.3,2.1,0.3
		c4.1,0,7.4-3.3,7.4-7.4c0-2.3-1-4.3-2.6-5.6l17.2-34.4L370.7,113.4z"/>
	<path class="st1" d="M321.1,129l0.5,5.7c-0.8,0.3-1.6,0.7-2.3,1.3l-23.7-18.2l19.1,4.1C314.8,125.5,317.6,128.5,321.1,129z"/>
	<path class="st1" d="M287,107.3c-1.8,0.4-3.4,1.5-4.5,3l-32.9-12.9c0-0.3,0.1-0.7,0.1-1c0-1.2-0.3-2.4-0.8-3.4l36.3-31.4
		c0.7,0.5,1.6,0.9,2.5,1.2L287,107.3z"/>
	<path class="st1" d="M281.3,113.4c0,0.3-0.1,0.7-0.1,1c0,1,0.2,2,0.6,2.9l-16.6,12.3c-1.3-1.1-2.9-1.7-4.7-1.7
		c-0.5,0-1,0.1-1.5,0.2l-12.1-26c0.6-0.5,1.1-1,1.5-1.6L281.3,113.4z"/>
	<path class="st1" d="M199.1,106.7c-1.7,1.3-2.9,3.3-3,5.5l-41.2,7.4c-0.1-0.2-0.2-0.5-0.4-0.7l32.1-30.1c1.2,0.8,2.6,1.2,4.1,1.2
		c0.4,0,0.8,0,1.2-0.1L199.1,106.7z"/>
	<path class="st1" d="M115.6,97.4c-0.1,0.5-0.2,1.1-0.2,1.7c0,1.1,0.2,2.1,0.7,3.1L86.6,125c-0.8-0.6-1.8-1.1-2.8-1.4l0.7-37.3
		c1.6-0.4,3-1.2,4.1-2.5L115.6,97.4z"/>
	<path class="st1" d="M128.1,202.4l7.7,20.1c-1.9,1.3-3.2,3.6-3.2,6.1c0,1.4,0.4,2.7,1.1,3.9l-3.5,3.5c-0.7-0.4-1.4-0.7-2.2-0.9
		V202.4z"/>
	<path class="st1" d="M136.1,234.9c1.1,0.7,2.4,1.1,3.9,1.1c2.1,0,4-0.9,5.3-2.3l26,15l-37.6-6.9c-0.1-1.3-0.5-2.5-1.1-3.5
		L136.1,234.9z"/>
	<path class="st1" d="M188.1,251.4c-0.1-0.5-0.2-1-0.3-1.4l10.4-6.2c1.3,1.4,3.2,2.2,5.3,2.2c2.1,0,3.9-0.9,5.3-2.2l21.1,12.7
		L188.1,251.4z"/>
	<path class="st1" d="M237.2,229.1l7.6-27.5c0.1,0,0.2,0,0.3,0c1.3,0,2.6-0.3,3.6-1l2,2.2c-0.8,1.2-1.2,2.6-1.2,4.1
		c0,1.7,0.6,3.3,1.6,4.6L237.2,229.1z"/>
	<path class="st1" d="M345,147.5c0.6-0.3,1.2-0.6,1.7-1l15.8,12.1c-0.4,0.9-0.6,1.9-0.6,3c0,2.4,1.2,4.5,3,5.9l-10.6,24.4
		c-0.3-0.1-0.6-0.1-0.9-0.1L345,147.5z"/>
	<path class="st1" d="M348.1,93.7c1,0.9,2.3,1.5,3.8,1.7l1.4,14.7c-1.6,0.5-3,1.6-3.8,3l-15.2-5.3c0-0.2,0-0.5,0-0.7
		c0-1.1-0.2-2.1-0.6-3L348.1,93.7z"/>
	<path class="st1" d="M333.2,111.2l15.2,5.3c0,0,0,0,0,0L329,119c-1.1-2.8-3.7-4.7-6.9-4.7c-2.9,0-5.5,1.7-6.6,4.2l-18.4-4l23.1-4.4
		c1.1,2.6,3.7,4.4,6.7,4.4C329.6,114.6,331.9,113.2,333.2,111.2z"/>
	<path class="st1" d="M152.2,116.5c-1.2-0.8-2.6-1.2-4.1-1.2c-1.5,0-2.9,0.5-4.1,1.2l-14.9-13.8c0.6-1.1,1-2.3,1-3.6c0,0,0,0,0,0
		l54-13c0.1,0.1,0.1,0.2,0.2,0.3L152.2,116.5z"/>
	<path class="st1" d="M179.9,83.6l-50.5,12.1c-1.1-2.1-3.1-3.6-5.5-4l-0.6-7.5c2.2-0.7,4-2.5,4.7-4.7L179.9,83.6z"/>
	<path class="st1" d="M117.3,70.9c-1.9,1.1-3.2,2.9-3.6,5.1L90,77.1c-0.3-1-0.8-2-1.5-2.8l19.2-26.5c0.9,0.4,1.8,0.6,2.8,0.6
		c0.1,0,0.2,0,0.4,0L117.3,70.9z"/>
	<path class="st1" d="M75.5,79.1c0,0.2,0,0.4,0,0.5L52.4,87l16.5-15.4c1.2,0.8,2.6,1.2,4.1,1.2c1,0,2-0.2,2.8-0.6l1.5,2.1
		C76.2,75.6,75.5,77.3,75.5,79.1z"/>
	<path class="st1" d="M53.1,90.3l23.5-7.4c1,1.6,2.6,2.9,4.5,3.4l-0.7,37.3c-0.7,0.2-1.4,0.4-2,0.8L51.8,95c0.8-1.2,1.3-2.6,1.3-4.2
		C53.1,90.7,53.1,90.5,53.1,90.3z"/>
	<path class="st1" d="M19.3,187c0.2-0.7,0.4-1.5,0.4-2.3c0-1.1-0.2-2.1-0.7-3l58.3-45.2c0.4,0.3,0.8,0.6,1.3,0.9L62,207.7
		c-2,0-3.9,0.8-5.2,2.2L19.3,187z"/>
	<path class="st1" d="M133.1,245.2l40.3,7.4c0,0.4,0.1,0.7,0.1,1l-27.7,12.6c-1.3-1.7-3.5-2.9-5.8-2.9c-0.5,0-1.1,0.1-1.6,0.2
		l-7.4-15.6C131.9,247.2,132.7,246.3,133.1,245.2z"/>
	<path class="st1" d="M210.4,240.8c0.1-0.3,0.2-0.6,0.2-1l15.6-0.9c0.9,2.9,3.5,5.1,6.7,5.2l1.5,8.2c-0.9,0.4-1.6,0.9-2.3,1.6
		L210.4,240.8z"/>
	<path class="st1" d="M236.3,243.5c2.6-1.1,4.4-3.7,4.4-6.7c0-1.7-0.6-3.3-1.6-4.6l12.4-15.8l-13.1,35.3c-0.2,0-0.4,0-0.5,0
		L236.3,243.5z"/>
	<path class="st1" d="M256.9,199.5c-1.3,0-2.6,0.3-3.6,1l-2-2.2c0.6-0.9,1-1.9,1.2-3l38.1-3L263,202.7
		C261.6,200.8,259.4,199.5,256.9,199.5z"/>
	<path class="st1" d="M309.5,189.3c-0.1-2.2-1.2-4.2-2.9-5.5l15.8-35c0.5,0.1,0.9,0.1,1.4,0.1c0.6,0,1.2-0.1,1.7-0.2l22.5,44.7
		c-0.8,0.7-1.5,1.6-2,2.6L309.5,189.3z"/>
	<path class="st1" d="M360.3,199.2C360.3,199.2,360.3,199.1,360.3,199.2c0-0.7-0.1-1.3-0.2-1.9l31.4-16.7c1.4,1.5,3.3,2.5,5.5,2.5
		c0.7,0,1.4-0.1,2-0.3l15.1,27.2c-0.6,0.6-1.2,1.3-1.6,2.1L360.3,199.2z"/>
	<path class="st1" d="M402,181.2c1.5-1.3,2.4-3.3,2.4-5.4c0-1-0.2-2-0.6-2.8l13.1-9.5c0.8,0.7,1.7,1.2,2.8,1.5l-2,43.3
		c-0.2,0-0.4,0.1-0.6,0.1L402,181.2z"/>
	<path class="st1" d="M323.9,42.1c0.7,0,1.3-0.1,1.9-0.3L348,82.7c-0.2,0.2-0.5,0.5-0.7,0.7l-50.7-26.1c0.1-0.6,0.2-1.2,0.2-1.8
		c0-0.8-0.1-1.5-0.4-2.3l22.2-13.4C320,41.2,321.9,42.1,323.9,42.1z"/>
	<path class="st1" d="M345.8,86.4c-0.1,0.6-0.2,1.2-0.2,1.8c0,1,0.2,2,0.6,2.8l-14.5,10.5c-1.3-1-2.9-1.7-4.7-1.7
		c-1.1,0-2.1,0.2-3,0.7l-28.9-40.1c0,0,0,0,0,0L345.8,86.4z"/>
	<path class="st1" d="M181.8,26.6l6.3,49.2c-1.2,0.5-2.2,1.2-3,2.2l-45.2-22.6c0.1-0.5,0.2-1.1,0.2-1.7c0-0.9-0.2-1.8-0.5-2.7
		l38-26.3C178.8,25.8,180.2,26.5,181.8,26.6z"/>
	<path class="st1" d="M182.2,80.4l-54-4.2c-0.3-1.8-1.2-3.4-2.6-4.5l5.4-10.7c0.5,0.1,1.1,0.2,1.7,0.2c2.3,0,4.3-1,5.6-2.6
		L182.2,80.4z"/>
	<path class="st1" d="M140.5,26.4l-7,20c-0.3,0-0.5,0-0.8,0c-2.1,0-4,0.9-5.4,2.3l-9.8-5.6c0.2-0.7,0.3-1.4,0.3-2.1
		c0-0.8-0.1-1.6-0.4-2.3l21.8-13.4C139.7,25.8,140.1,26.1,140.5,26.4z"/>
	<path class="st1" d="M125.7,51.7c-0.2,0.7-0.3,1.4-0.3,2.1c0,2.3,1,4.3,2.6,5.6l-5.4,10.7c-0.5-0.1-1.1-0.2-1.7-0.2
		c-0.1,0-0.2,0-0.4,0l-6.5-22.5c0.7-0.4,1.2-0.8,1.8-1.4L125.7,51.7z"/>
	<path class="st1" d="M18.2,226.4l-3.5-34.7c1.1-0.4,2-1,2.8-1.8L55,212.8c-0.2,0.7-0.4,1.5-0.4,2.3c0,0.4,0,0.8,0.1,1.2l-31.6,13.1
		C22,227.7,20.3,226.6,18.2,226.4z"/>
	<path class="st1" d="M67,209.5c-0.5-0.4-1-0.8-1.6-1.1L82,138.1c1.1,0,2.2-0.3,3.1-0.7l27.3,34.1c-1,1.3-1.6,2.8-1.6,4.5
		c0,0.9,0.2,1.9,0.5,2.7L67,209.5z"/>
	<path class="st1" d="M108.7,341.5l16.3-36c0.5,0.1,0.9,0.1,1.4,0.1c1,0,2-0.2,2.9-0.6l13.3,18c-1.1,1.3-1.8,3-1.8,4.8
		c0,0.5,0,0.9,0.1,1.4l-30.8,13.7C109.7,342.3,109.2,341.9,108.7,341.5z"/>
	<path class="st1" d="M139.5,335.8c-1-0.5-2.1-0.7-3.2-0.7c0,0-0.1,0-0.1,0l6.1-2.7c0,0,0,0,0,0L139.5,335.8z"/>
	<path class="st1" d="M116.6,343.7l14.3-6.3c-1.1,1.2-1.8,2.7-2,4.4L116.6,343.7z"/>
	<path class="st1" d="M181.9,285.9c-3.7,0-6.8,2.7-7.3,6.3l-35,3.1l83.4-29.4l-35.9,22.2C185.8,286.8,183.9,285.9,181.9,285.9z"/>
	<path class="st1" d="M357.5,82.4c-1.3-1-2.8-1.6-4.5-1.6c-0.7,0-1.3,0.1-1.9,0.3l-22.2-40.9c0.2-0.2,0.4-0.4,0.6-0.6l44.9,24
		c-0.2,0.6-0.2,1.2-0.2,1.9c0,1.1,0.3,2.2,0.7,3.1L357.5,82.4z"/>
	<path class="st1" d="M294.7,50.4c-0.5-0.6-1.2-1-1.9-1.4l4.8-19.6c0,0,0,0,0.1,0c2.3,0,4.4-1.1,5.7-2.7l13.3,6.4
		c-0.1,0.5-0.2,1-0.2,1.6c0,0.8,0.1,1.5,0.4,2.3L294.7,50.4z"/>
	<path class="st1" d="M290.4,22.8c0.3,2.5,1.8,4.7,4,5.8l-4.8,19.6c0,0,0,0-0.1,0c-1.1,0-2.1,0.2-3.1,0.7l-21.3-27.2
		c0.5-0.6,0.9-1.3,1.1-2L290.4,22.8z"/>
	<path class="st1" d="M252.2,18.8c0.5,2.2,2,4,4,5l-14,65.2c-0.1,0-0.2,0-0.3,0l-19.9-65.5c1.7-1,3-2.7,3.5-4.7H252.2z"/>
	<path class="st1" d="M189.8,20.6l21.5-1.3c0.5,1.5,1.4,2.9,2.7,3.8l-22.1,52.4c-0.1,0-0.3,0-0.4-0.1l-6.3-49.2
		C187.6,25.3,189.4,23.1,189.8,20.6z"/>
	<path class="st1" d="M151.7,21.7l23.7-0.6c0.1,0.3,0.2,0.5,0.3,0.8l-38,26.3c-0.3-0.3-0.6-0.5-0.9-0.7l7-20c0.3,0,0.5,0,0.8,0
		C148,27.6,151,25.1,151.7,21.7z"/>
	<path class="st1" d="M62.2,258.7l1.3-36.4c1.8-0.4,3.4-1.4,4.5-2.9l51.1,21.6c-0.1,0.4-0.1,0.8-0.1,1.2c0,0.3,0,0.5,0,0.8
		l-52.6,18.7C65.4,260.3,64,259.2,62.2,258.7z"/>
	<path class="st1" d="M99.2,276.8l23.8-28c1,0.5,2.1,0.8,3.3,0.8c0.5,0,1.1-0.1,1.6-0.2l7.4,15.6c-1.7,1.3-2.7,3.4-2.7,5.6
		l-32.7,7.3C99.7,277.6,99.5,277.2,99.2,276.8z"/>
	<path class="st1" d="M300,259l-55.3-1.4c-0.4-1.9-1.5-3.6-3.1-4.6l14.4-38.7c0.3,0,0.6,0.1,0.9,0.1c1.3,0,2.6-0.4,3.6-1l40.5,43.5
		C300.5,257.4,300.2,258.2,300,259z"/>
	<path class="st1" d="M379.2,255.8l-65,3.1c-0.3-1-0.8-1.9-1.4-2.7l37.3-50.2c0.9,0.4,1.9,0.6,2.9,0.6c0.7,0,1.4-0.1,2.1-0.3
		l26.3,45.6C380.2,252.8,379.5,254.2,379.2,255.8z"/>
</g>
</svg>
